<?xml version="1.0" standalone="no"?><!DOCTYPE svg PUBLIC "-//W3C//DTD SVG 1.1//EN" "http://www.w3.org/Graphics/SVG/1.1/DTD/svg11.dtd"><svg t="1724659209655" class="icon" viewBox="0 0 1024 1024" version="1.1" xmlns="http://www.w3.org/2000/svg" p-id="13364" xmlns:xlink="http://www.w3.org/1999/xlink" width="200" height="200"><path d="M785.514 821.287c-70.055-56.64-131.168-144.582-131.168-144.582l-10.433 8.943c19.377 26.83 78.998 102.847 126.695 141.6 49.188 38.755 96.885 73.037 111.79 84.962 14.906 13.414 8.944 20.867 4.472 29.81-7.452 17.887 14.906 26.83 22.359 5.963 1.49-4.472 2.98-10.434 2.98-17.887-2.98-28.32-56.64-52.169-126.695-108.81z" fill="#D73E3E" p-id="13365"></path><path d="M666.539 688.86c66.14-15.264 105.146 10.175 142.455 16.958-3.391-10.175-18.654-25.438-10.175-28.83 33.918-11.871 71.228-5.088 106.842-8.48-6.784-6.783-27.135-15.263-20.35-22.046 13.566-13.568 37.309-10.176 55.964-15.264-3.392-3.391-11.871-10.175-8.48-11.87 25.439-11.872 54.27-13.568 81.404-20.352-25.439-5.087-50.877-5.087-74.62-15.263-3.392-1.696 3.392-8.48 5.088-11.871-39.006-5.088-76.316 1.696-115.322-16.96 1.696-32.221 64.445-66.14 94.97-98.361-5.087 0-16.958 3.391-15.262-1.696 16.959-28.83 40.701-54.27 61.052-81.404-35.614 3.392-69.532 5.088-105.146 8.48 13.567-39.006 28.83-76.316 42.398-115.321-11.872 0-35.614 13.567-37.31 1.696-6.784-27.135 11.871-54.27 18.655-81.404-6.784 0-18.655 8.48-20.35 1.696-3.393-15.263 5.087-32.222 8.479-47.485-5.088 0-11.872 1.696-13.568-3.392-3.391-25.438 1.696-52.573 1.696-79.707-18.655 25.438-33.918 54.269-55.965 76.315-3.391 3.392-8.479-5.087-11.87-8.48-10.176 16.96-13.568 40.702-30.527 52.574-6.784 5.087-11.871-10.176-16.96-16.96-15.262 35.615-23.742 72.925-45.788 105.147-5.088 6.783-13.568-13.568-15.264-16.96-3.391-3.391-5.087 111.93-45.789 150.936-57.66-74.62-15.263-122.105-22.047-184.853-3.391 5.087-10.175 18.655-11.87 11.87-8.48-23.742-5.089-49.18-8.48-72.923-3.392 5.088-10.176 20.351-11.872 15.263-6.783-16.959-3.392-37.31-5.087-55.965-6.784 16.96-11.872 37.31-22.047 52.573-1.696 3.392-6.784-3.391-10.176-6.783-1.695 18.655-18.654 55.965-39.005 55.965-15.263 0-37.31-55.965-55.965-83.1-1.696 1.696-5.088 8.48-6.784 6.784-10.175-11.871-15.263-28.83-23.742-42.398-8.48 13.568-18.655 40.702-27.135 39.006-16.959-1.696-44.093-27.134-64.444-40.701 0 3.391 1.696 13.567-1.696 13.567-13.567-5.088-23.742-16.96-35.614-25.439 0 3.392 3.392 13.567 0 11.872-22.047-10.176-40.701-27.135-59.356-40.702 5.087 23.743 13.567 47.485 15.263 71.228 0 3.392-6.784-3.392-10.176-5.088 3.392 13.567 10.176 28.83 10.176 42.398 0 5.087-8.48-1.696-11.872-3.392 5.088 25.438 16.96 59.356 13.568 76.315-1.696 8.48-30.527 6.784-47.486 10.176 10.176 13.567 23.743 23.742 30.527 39.006 1.696 3.391-5.088 3.391-8.48 5.087 18.655 27.135 62.748 67.836 57.66 83.1-6.783 18.654-49.18 20.35-66.14 15.263 0 3.391 5.088 10.175 1.697 11.87-18.655 5.089-37.31 1.697-55.965 1.697 16.959 8.48 37.31 13.567 49.18 25.438 5.089 5.088-11.87 3.392-18.654 5.088 22.047 11.871 45.79 18.655 64.444 35.614 5.088 3.392-10.175 5.088-15.263 6.784 54.269 30.526 113.626 8.48 162.807 89.882-50.877 22.047-157.72-16.959-157.72-13.567 1.697 3.392 16.96 18.655 10.176 20.35-37.31 8.48-76.315 1.697-113.625 3.393 3.392 6.783 15.263 16.959 8.48 22.046-16.96 10.176-40.702 5.088-59.357 8.48 1.696 5.088 6.783 11.871 3.392 13.567-28.83 11.871-61.053 15.263-93.275 23.743 25.439 10.175 50.877 15.263 74.62 28.83 3.391 1.696-1.696 8.48-3.392 13.567 15.263 3.392 33.918 0 47.485 10.176 5.088 3.392-6.783 11.871-8.48 18.655 27.135 5.087 59.357-3.392 83.1 13.567 10.175 6.784-10.176 23.743-15.263 35.614 40.701 1.696 81.403 1.696 123.8 3.392-15.263 32.222-30.526 62.748-47.485 94.97 32.222-8.48 64.445-22.047 98.363-27.134 5.087 0-3.392 10.175-3.392 13.567 42.397-16.96 96.666-62.748 127.192-50.877 3.392 44.093-18.655 74.62-28.83 113.625 5.088 0 13.567-5.087 13.567-1.696 0 25.439-10.175 49.182-15.263 74.62 16.96-22.047 28.83-47.485 49.181-67.836 3.392-3.392 5.088 8.48 8.48 11.871 11.871-15.263 16.959-39.005 33.918-45.79 8.48-3.39 8.48 18.656 11.871 27.135 15.263-32.222 23.743-69.532 47.485-94.97 6.784-6.784 15.264 13.567 22.047 20.35 8.48-37.31-1.696-83.098 39.006-139.063-1.696-1.696-3.392-5.088-5.088-6.784L513.908 856.753l133.976-174.677-390.058-20.351 383.274 6.783-152.63-217.075-179.766-16.96h169.59l-142.456-235.73 154.327 225.555 64.444-139.063-50.877 156.023L658.06 656.637l161.11-418.888-157.718 429.063 242.514-64.444-242.514 78.012s1.696 3.391 5.088 8.48z" fill="#D73E3E" p-id="13366"></path><path d="M312.621 617.426c2.84-19.724 4.786-31.167 5.84-34.334l-4.917 42.217c4.097-32.79 6.83-50.414 8.197-52.873 0.273 0 0.41 0.547 0.41 1.639l1.229 0.41v-0.82h0.41l1.23 0.41v0.41l0.41-1.229v-3.28l1.229-1.23-1.229-2.869c0.272-0.547 0.682-1.092 1.229-1.639l0.41 0.41c-0.547 11.203-2.322 23.225-5.328 36.067l0.82 0.41 0.819-0.818c1.093-4.372 1.502-7.788 1.23-10.248l0.82-1.229c-2.46 23.225-4.51 40.577-6.148 52.054 5.738-23.499 9.563-41.26 11.476-53.282v-1.64c2.186-8.472 4.098-15.714 5.739-21.724 1.092-11.477 2.596-19.127 4.506-22.953l1.232-0.82c9.016 2.734 14.208 5.328 15.575 7.788 0-1.367 0.41-2.05 1.228-2.05h0.82l0.82 1.23-1.23 0.41v0.41l1.23-0.41c0.274-0.273 0.41-0.82 0.41-1.64l1.23 1.64 2.459 0.41-0.41 1.23 3.279-1.23h0.82v0.819c0.547-0.273 2.87 0 6.967 0.82 1.64-0.546 2.596-0.546 2.87 0 4.37-0.82 10.86 1.23 19.467 6.149s14.279 9.426 17.011 13.525c-1.092 4.098-3.004 7.65-5.738 10.657-6.012 6.011-18.717 14.209-38.118 24.592-19.4 10.383-33.336 16.258-41.805 17.625l-0.82 2.049c12.568-3.826 22.404-6.149 29.51-6.969l-0.41 1.23c-1.913 0.82-3.28 1.368-4.1 1.64l-0.409 2.05c4.919-0.547 10.93-1.777 18.034-3.69l2.46 0.41c1.911-0.546 3.415-1.093 4.509-1.64l3.277 0.82 0.41-1.228c0.547 0 1.572-0.343 3.075-1.026 1.502-0.682 2.937-0.886 4.304-0.615l0.819-0.41 0.82 0.41 0.82 0.82 1.23 0.82 1.64-1.23 1.228 1.23 3.28 0.41c0.82 0 2.185-0.342 4.097-1.025 1.914-0.682 3.416-1.025 4.51-1.025 4.645 0 9.153 0.41 13.525 1.23 1.64-1.093 9.837-3.689 24.593-7.787l2.049 0.819 3.279-3.688 1.639 0.409 3.279-3.688 0.82 0.82 6.967-4.92 5.739-9.836c-0.274-1.367 0.069-3.963 1.024-7.787 0.957-3.826 1.435-6.285 1.435-7.379 0-7.375-3.688-16.94-11.067-28.691-6.284-9.837-12.705-18.17-19.264-25.001-6.557-4.1-11.611-6.832-15.164-8.197-7.924-5.465-12.297-8.198-13.116-8.198-0.82 0-1.502 0.135-2.05 0.41l-0.819-1.23c-9.565 0-16.805-0.41-21.723-1.229-1.094 0-3.485-0.48-7.173-1.434-3.69-0.957-6.354-1.435-7.991-1.435-4.647 0-9.84 1.367-15.578 4.098a121.887 121.887 0 0 1-8.196 4.508l-0.41-2.049c1.912-4.644 3.28-7.24 4.098-7.787h9.018l0.82 1.23c5.738-3.279 13.525-4.92 23.362-4.92 1.093-0.818 2.05-1.228 2.869-1.228 1.64 0 3.893 0.75 6.763 2.253 2.869 1.504 5.123 2.255 6.762 2.255 11.477 0 24.456-4.782 38.938-14.346l1.23 0.82c1.64-1.639 2.87-3.004 3.69-4.098 3.824-1.64 6.694-3.279 8.607-4.92l0.819 0.41 5.739-7.377 2.048-0.82v-1.638a66.384 66.384 0 0 0 2.05-2.87c0.273-1.912 1.366-3.826 3.279-5.738a10.45 10.45 0 0 1 2.217-4.266l0.596-0.65-1.173-0.002c0-3.198 0.11-5.067 0.33-5.608l0.08-0.13 0.409-0.41h0.41l0.82 0.82c0.348-1.914 0.586-3.107 0.712-3.582l0.027-0.105-1.968-0.003 1.229-4.1c-3.826-23.224-13.8-43.035-29.92-59.43-6.559-6.285-15.166-12.843-25.823-19.674-12.569-8.197-22.133-12.295-28.692-12.295-7.103 0-12.568 0.955-16.393 2.87-2.734-4.647-5.056-7.653-6.968-9.018l-2.87-0.41-2.868 2.459-0.82-1.639-1.64 0.819-0.41 0.82-2.049-2.46-0.41 0.821c-0.547 0-1.092 0.135-1.639 0.41l-0.82 1.229-2.049-1.228-2.459 1.23-2.459-2.461c-0.82 0.547-1.23 1.093-1.23 1.639l-1.23-1.64-1.64 1.64c-7.377 1.093-12.432 4.509-15.164 10.248-5.193 10.93-11.886 50.14-20.084 117.632-7.377 63.393-11.067 105.337-11.067 125.83 0 3.005 0.136 5.603 0.41 7.789l0.41-1.23h1.23l0.41 1.23-2.87 19.263c1.094-4.646 2.46-13.253 4.1-25.822 1.092-10.93 2.596-19.264 4.506-25.002-1.91 11.75-3.14 28.145-3.688 49.184l-0.003-0.04 0.107-1.898c0.553-9.503 1.638-16.133 3.255-19.892l0.331-0.713 0.41 3.69c1.912-15.849 3.688-27.599 5.328-35.25v3.28c0.274 4.918-0.479 11.885-2.253 20.903-1.777 9.017-2.665 15.712-2.665 20.084l10.245-60.253v5.739c0 2.187-0.135 5.124-0.409 8.813-0.273 3.688-0.41 6.49-0.41 8.402l1.64-3.688-0.82 16.395c0.547-9.291 1.64-16.942 3.28-22.954l1.229-1.23 0.41 1.64-6.141 55.241 0.3-2.053z m40.27-122.457c0-10.655 3.415-29.1 10.245-55.331 2.46-13.39 4.101-23.5 4.92-30.331 0.547-1.912 1.775-3.69 3.69-5.328 28.69 7.65 43.037 19.537 43.037 35.659 0 9.017-8.2 19.81-24.594 32.379-11.203 8.472-23.635 16.121-37.3 22.953zM531.914 600.561c1.204-14.449 3.732-31.428 7.587-50.935a3803.697 3803.697 0 0 0 11.198-50.573l1.444 2.168c0.964-5.057 2.168-8.912 3.613-11.56 0 3.612-0.964 8.067-2.89 13.366-2.649 6.743-4.093 11.199-4.335 13.365-8.188 41.182-12.282 65.264-12.282 72.248 0 5.539-1.445 9.513-4.335 11.921z m-12.282-70.442a105.95 105.95 0 0 1 3.973-28.898l0.723 0.36c0 9.634-1.565 19.147-4.696 28.538z m1.806 2.53l2.168-18.785h0.722l-2.89 18.785z m-5.145 23.437l-0.319-0.153-0.303-1.532 0.008-0.192c0.092-2.03 0.515-4.605 1.264-7.726l0.341-1.372c1.083-4.214 1.625-7.285 1.625-9.212l0.362 0.362-2.978 19.825z m-0.54-0.266l-0.338-0.17-1.202-0.966-0.36-1.084 0.36-0.722 1.446 1.444 0.013 0.08-0.013 0.643 0.095 0.775z m-7.68 49.798h-1.806c0.963-4.093 2.167-12.041 3.612-23.842 1.204-9.873 2.648-17.7 4.334-23.48-3.13 20.953-5.176 36.727-6.14 47.321z m20.59-11.921l2.167-7.947 0.362 1.445-2.528 6.502z m8.2 27.18l0.07-0.24c0.427-1.262 1.042-2.295 1.845-3.097 1.204-1.204 8.067-2.77 20.59-4.696 11.319-1.687 18.906-2.53 22.759-2.53l0.722-0.722c0.482 0.241 1.083 0.722 1.806 1.445l1.083 0.36c12.764-1.203 22.397-2.046 28.9-2.528 0.48 0 5.297-0.963 14.45-2.89 6.02-1.444 10.836-2.167 14.448-2.167 3.613 0 6.141 0.601 7.587 1.806a133.11 133.11 0 0 0 10.475-3.25c4.336-1.445 7.466-3.131 9.392-5.058-8.91-8.912-16.617-13.366-23.118-13.366-8.43 0-16.256 1.806-23.48 5.418-2.169 0-4.817 0.483-7.949 1.446-4.093 0.964-6.622 1.565-7.585 1.806-27.937 4.575-48.888 6.863-62.855 6.863h-0.722c1.444-33.234 8.789-71.644 22.035-115.233 3.37-10.838 5.057-16.497 5.057-16.979l-1.445-0.724c1.686-5.296 3.01-9.512 3.974-12.642l-0.723-2.89c3.13-8.911 5.056-15.774 5.78-20.59 3.612-9.875 6.502-17.34 8.669-22.397a11.848 11.848 0 0 1 0.362 2.89c3.853-9.393 6.02-14.45 6.502-15.173-2.89-17.82-8.067-29.38-15.533-34.678h-0.722c-1.928 0-3.252 0.12-3.974 0.362l-0.362 1.082-2.529-1.444-1.804 0.722-0.722 1.806c-1.205-0.24-2.047-0.602-2.529-1.082v0.722c-1.446-0.242-2.469-0.362-3.07-0.362-0.603 0-0.904-0.362-0.904-1.082-6.742 0-11.922 2.165-15.533 6.5-5.78 6.985-10.958 21.434-15.533 43.35a3172.746 3172.746 0 0 1-7.586 46.961c-1.204 6.983-3.974 19.386-8.309 37.206-3.853 15.414-6.262 27.695-7.224 36.847-1.686 15.171-2.891 27.333-3.612 36.484-1.928 7.466-2.892 17.46-2.892 29.984l0.724 0.722 0.361 1.444-0.723 2.168c0 2.648 0.362 4.455 1.084 5.418l-0.008-0.003-2.522-1.803v1.083c0 0.242 0.181 0.845 0.542 1.807 0.361 0.964 0.663 1.565 0.903 1.807l0.723 1.806c2.408 1.444 5.72 2.107 9.934 1.987 4.214-0.122 7.164 0.3 8.85 1.263l-0.36 3.613 1.805-1.807h0.36l0.724-0.36h1.083c0.482 0.482 0.964 1.082 1.446 1.806l-1.446 2.167a499.664 499.664 0 0 1 3.974-5.057c0.722 0 1.444 0.12 2.168 0.362l-2.163 7.575 0.799-1.192a271.887 271.887 0 0 1 3.354-4.902l0.538-0.76 0.722-0.36 1.446 1.445-0.108 1.531z m-11.09-61.03l0.065-0.608c0.23-2.004 0.543-4.29 0.939-6.856l0.187-1.198 1.7-2.643L527 550.94l0.024-0.13c0.086-0.536 0.175-1.082 0.268-1.64l0.288-1.71c2.166-12.522 3.37-19.626 3.612-21.312l-2.528 9.03c2.166-11.8 3.852-22.155 5.056-31.066 0.964-1.686 2.288-2.891 3.974-3.612l2.89-9.754c0 3.372-1.204 9.874-3.612 19.507-2.408 10.837-3.854 17.942-4.336 21.313-3.37 32.512-7.344 56.593-11.92 72.247l-1.807 0.361c-0.24-1.927-0.36-3.612-0.36-5.056 0-15.896 2.287-30.706 6.863-44.433l0.362 2.167-0.002 2.997zM710.584 592.023c9.414 0 15.512-1.07 18.293-3.21l-0.32-1.283 1.31-1.31 0.615-0.615 7.703 0.963c0.642-0.643 1.926-1.284 3.851-1.926h1.605l0.564-2.278 0.117-0.136 0.424-0.476 0.243-0.264 0.138-0.111a1966.244 1966.244 0 0 0 4.038-3.345l0.427-0.356 0.467-0.095 0.135-0.406 0.33-0.276a77.012 77.012 0 0 0 1.399-1.186l0.063-0.058h0.32c-0.214 2.567-2.46 5.564-6.74 8.987l4.493-1.926-0.963-0.32 0.321-0.642 0.642-0.643h0.642l0.321 1.605c2.14-2.567 3.745-4.6 4.815-6.098l1.604-0.32 0.642-0.964 1.284 0.322c2.14-2.14 3.636-3.21 4.493-3.21s2.086-0.696 3.69-2.086c1.606-1.39 3.264-1.98 4.976-1.765 10.697-7.703 18.935-20.434 24.712-38.192 5.134-14.763 7.702-30.062 7.702-45.894 0-13.266-2.353-28.564-7.06-45.895-5.136-20.112-11.5-33.538-19.096-40.277-7.596-6.74-12.463-12.142-14.603-16.209-0.643-1.07-1.604-5.028-2.89-11.874-1.069-5.35-2.566-8.344-4.492-8.986l-2.247 0.642-4.493-1.605-1.283 1.283-3.21-1.603c-3.852 0-6.314 0.106-7.382 0.32-1.927-0.642-6.42-0.428-13.48 0.642-4.707 0.856-9.414 3.102-14.121 6.74-2.354 1.712-6.098 5.242-11.233 10.59-11.554 11.982-20.005 22.68-25.355 32.094-5.776 10.056-10.59 22.68-14.442 37.871-3.849 15.192-5.775 27.388-5.775 36.587 0 50.067 11.554 83.017 34.66 98.85 7.703 5.563 15.086 8.344 22.146 8.344z m15.085-17.652c-9.629-8.558-17.332-19.255-23.108-32.093-5.778-12.838-8.666-25.676-8.666-38.513 0-39.583 7.596-64.294 22.787-74.138-0.429-2.352 1.176-5.883 4.814-10.59 3.21-2.781 5.67-5.35 7.381-7.703h2.247c10.912 13.051 17.33 21.29 19.257 24.712 4.064 7.061 7.167 17.224 9.306 30.49 1.498 10.27 2.248 18.293 2.248 24.071 0 17.545-2.996 32.842-8.988 45.894-5.349 12.195-14.442 24.82-27.28 37.87z m16.046 5.456c-0.642-0.855-2.46-2.14-5.456-3.85l0.321-0.964c0.642-0.427 1.284-0.642 1.926-0.642 1.712-1.497 2.889-2.62 3.53-3.37 0.642-0.748 1.284-1.764 1.927-3.048 1.71-1.498 3.315-2.354 4.813-2.568 0 0.428 0.213 0.428 0.641 0h0.642v-0.642l0.322-0.641h0.963l0.32-0.642c0-0.215 0.535-0.75 1.605-1.605 1.07-1.711 2.14-2.89 3.21-3.53 0.213-1.498 0.533-2.46 0.963-2.89l0.641-0.32h1.284l-0.322-0.963 0.322-0.321 0.963 0.322c1.07-0.857 1.818-1.392 2.246-1.605v0.321c-3.637 7.06-10.912 15.298-21.824 24.712 5.35-4.28 8.665-6.42 9.95-6.42l-8.987 8.666z m-6.098-4.171l-1.283-1.285 6.418-4.493a99.008 99.008 0 0 0-4.814 4.493l-0.285 1.142-0.035 0.143z m8.024 7.38l-1.605-1.604 11.233-9.95 0.321 0.964c-1.498 0.642-2.674 2.353-3.53 5.135l0.134-0.406-0.074 0.061-0.453 0.379-0.075 0.061-1.138 0.226a127.108 127.108 0 0 0-3.23 3.328l-0.233 0.258-0.708 0.586-0.078 0.29-0.252 0.292-0.313 0.381zM949.352 616.557l0.089-1.566c0.425-6.228 1.63-11.127 3.616-14.702 0 4.548-0.504 10.615-1.515 18.195l-0.59 4.603-0.15 1.167c1.385-8.93 3.148-16.16 5.289-21.69l1.895 0.38c-2.528 15.92-4.043 27.924-4.549 36.01l1.137-2.653 0.759 2.653 3.032-6.823c-0.506 3.286-0.758 5.054-0.758 5.306 4.295-11.119 8.34-28.934 12.129-53.447 2.528-15.92 4.296-24.891 5.308-26.914 0-5.811 1.516-14.214 4.548-25.207 3.032-10.992 4.549-19.395 4.549-25.207 0-2.78-0.633-7.076-1.896-12.889l1.896-1.515 4.928-1.138c2.779 0 5.812 0.507 9.097 1.517l0.38-0.758 0.757-0.76 1.138-0.378 1.516 0.38c-0.253-0.253-0.253-0.633 0-1.137h3.032c3.286-6.065 6.065-9.983 8.34-11.752-5.56-2.022-9.73-3.285-12.51-3.79l-0.757 0.38-0.38 0.757-1.137 0.758-2.274-1.137h-2.274c-0.507 0.506-0.885 1.01-1.138 1.515v1.517c-22.743 2.528-33.358 3.79-31.84 3.79-4.044 0-6.697-0.252-7.962-0.757-1.263 0.252-2.526 0.631-3.79 1.137l-1.895-0.38-0.759 0.38h-0.758l-0.38 0.757-16.677-1.894-1.517 0.38c-3.032-1.518-9.097-2.275-18.194-2.275-3.539 0-5.686 1.642-6.444 4.927h-1.897l-1.138 0.38-1.136 1.516-0.38 2.274c-5.559 1.263-8.465 1.895-8.717 1.895-1.265 0.506-2.276 0.758-3.033 0.758l-0.38 1.138-0.378-0.76c-0.253 0.508-0.38 2.023-0.38 4.55v6.445c0.759 0.252 6.697 2.147 17.817 5.685 6.822 2.274 13.014 3.412 18.574 3.412 1.768 0 9.981-1.644 24.638-4.93v-0.378h0.759l1.136 1.517c-1.768 5.812-2.653 17.436-2.653 34.874 0 1.01-0.632 7.013-1.895 18.006-1.263 10.992-1.896 16.74-1.896 17.246-1.263 4.295-2.274 7.455-3.031 9.477-13.142 3.286-21.228 6.065-24.261 8.34-32.093-7.834-48.141-32.6-48.141-74.297 0-27.545 4.802-52.942 14.406-76.19 12.634-30.832 30.576-46.246 53.826-46.246 6.822 0 18.7 7.58 35.63 22.742 3.791-3.031 6.825-5.56 9.097-7.58-3.789-13.646-11.875-26.281-24.259-37.906-13.138-12.636-26.405-18.953-39.799-18.953-28.558 0-51.3 20.216-68.232 60.65-13.14 31.587-19.71 63.934-19.71 97.04 0 25.27 3.158 44.224 9.477 56.858 7.833 15.416 22.364 27.671 43.59 36.768l0.38-0.757c14.91 1.768 22.744 2.654 23.501 2.654 3.54 0 8.845-1.39 15.922-4.17 9.603-3.79 15.035-5.813 16.3-6.065-1.265 5.054-1.896 8.717-1.896 10.993 0 1.263 0.254 2.401 0.758 3.412l-1.138 12.129 1.138-0.758 0.757 0.38v1.137l0.38 0.379v6.065c2.021-7.328 3.538-13.141 4.55-17.438 0.757 1.265 1.136 2.528 1.136 3.791l-0.745 8.92 0.053 0.033c0.294 0.176 0.711 0.389 1.25 0.64l0.58 0.263c0.505-1.769 0.884-4.99 1.136-9.666 0.253-4.675 0.884-8.024 1.895-10.045l0.38-5.686h1.895c0.541 3.249 0.825 6.82 0.851 10.713l-0.008 1.004z" fill="#061161" p-id="13367"></path></svg>