<?xml version="1.0" standalone="no"?><!DOCTYPE svg PUBLIC "-//W3C//DTD SVG 1.1//EN" "http://www.w3.org/Graphics/SVG/1.1/DTD/svg11.dtd"><svg t="1724658330021" class="icon" viewBox="0 0 1024 1024" version="1.1" xmlns="http://www.w3.org/2000/svg" p-id="5695" xmlns:xlink="http://www.w3.org/1999/xlink" width="200" height="200"><path d="M390.104714 282.23284c9.890583 16.417709 27.803516 23.567579 53.737736 21.451736L433.932738 328.991801 370.515897 313.552843 390.104714 282.23284z" fill="#F9A003" p-id="5696"></path><path d="M452.424845 282.866211c-16.801345 0-31.144656-7.18919-43.027809-21.569696l7.94371-9.710986 42.436946 11.51652-7.352847 19.764162z" fill="#FFA2A2" p-id="5697"></path><path d="M451.913685 181.622433c0-6.370908 11.411312-6.370908 11.411311 0v13.092509c0 6.962834-11.411312 6.161556-11.411311 0v-13.092509z" fill="#3F3E3E" p-id="5698"></path><path d="M416.250412 211.752207a19.258316 19.234936 0 1 0 38.516632 0 19.258316 19.234936 0 1 0-38.516632 0Z" fill="#FFA5A2" p-id="5699"></path><path d="M486.149746 216.026402a17.831105 17.809851 0 1 0 35.66221 0 17.831105 17.809851 0 1 0-35.66221 0Z" fill="#FFA5A2" p-id="5700"></path><path d="M484.722535 181.622433c0-6.370908 11.413437-6.370908 11.413437 0v13.092509c0 6.962834-11.413437 6.161556-11.413437 0v-13.092509z" fill="#3F3E3E" p-id="5701"></path><path d="M515.996841 155.547936c-10.678046-3.161543-16.01707-8.055294-16.01707-14.680189-8.473999 12.231719-23.806688 12.578161-45.999128 1.039325C449.954059 158.002781 436.269624 163.635111 412.926275 158.805123c-1.855481 10.82895-7.125428 16.366699-15.807717 16.614309-8.169003-20.213686-18.923564-27.473015-32.263683-21.776924l1.825725-14.62599 102.511583-17.739713 46.804658 7.581328 2.962818 6.328401-2.962818 20.361402z" fill="#FFA2A2" p-id="5702"></path><path d="M386.293858 168.82323c-3.358144-3.894809-7.111613-6.634459-13.927794-3.317761-4.543058 2.212549-5.733286 8.125432-3.570684 17.740775 0.86079-6.106295 1.802345-10.028735 2.823603-11.76838 0.649312-1.105212-1.026572 10.896963 5.402786 15.340127-3.70671-5.414475-1.690762-19.205181-0.844849-19.553747 2.637631-1.089271 6.178559-0.037195 10.116938 1.558986z" fill="#FFA2A2" p-id="5703"></path><path d="M451.411026 239.60142c12.981988 0.598302 22.824749 0.598302 29.528284 0 3.70246-0.422956 4.686523 1.200855 2.956441 4.869308-2.596185 5.504805-6.726914 8.527134-15.765209 9.256149-9.038295 0.730077-15.73014-5.84487-18.140351-8.775807-1.605745-1.954312-1.131779-3.737529 1.420835-5.34965z" fill="#FF8989" p-id="5704"></path><path d="M384.811387 152.181291c5.921385 3.652513 10.726931 13.687623 10.726931 23.725922 9.772623-4.431474 13.583478-12.341178 11.434691-23.725922 26.437942 8.184944 41.325358 3.738592 44.661184-13.341182 23.953341 9.654663 40.340231 8.641906 49.156421-3.037207 1.325191 8.483563 5.747101 12.725876 13.266793 12.725876l-2.549426 23.70148c24.771622-2.950065 36.497495-14.080824 35.178679-33.390149 23.263646-0.812968 36.631395-45.61443 4.869308-63.291443-3.390025-6.049972 3.071214-68.920584-71.514643-45.789775-32.637755-29.904481-62.581556-30.348691-89.830341-1.333693-53.151124 4.307138-75.097017 29.681313-65.838743 76.122526-3.239121 8.486751-2.981946 16.671695 0.771523 24.554831-9.899085 17.043641-8.828942 29.468773 3.209365 37.279645-5.175367 24.587775 4.989394 40.076681 30.493219 46.464592 8.805563 13.64724 19.433662 19.691899 31.884298 18.138226-3.945819-12.836398-5.7386-25.103186-5.379406-36.801428-18.804541-6.715224-26.968231-17.484663-24.494257-32.307254 5.209373-15.579236 18.034081-13.347558 23.954404-9.695045z" fill="#6F3AB9" p-id="5705"></path><path d="M509.998942 500.309197c95.248004-66.161805 172.441736-78.322323 231.580132-36.482617 59.138396 41.838643 66.674028 136.816721 22.605832 284.93317l-88.665617-10.933095c31.610121-147.787011 18.494232-207.953042-39.346604-180.498093-127.899575 69.340352-210.784084 71.173515-248.653529 5.498429 51.292455-47.704768 92.119405-68.544387 122.479786-62.518857z" fill="#333232" p-id="5706"></path><path d="M364.139675 611.226767c37.019282 66.83981 100.16726 75.442396 189.441807 25.806696 29.120206-12.9161 36.636709 6.278453 22.550572 57.583661-14.085074 51.305208-26.959729 89.630553-38.62184 114.976035L630.52229 830.587933c81.832433-194.751074 67.86957-293.625023-41.887528-296.620785-109.75816-2.996824-180.532099 1.199792-212.322879 12.588787L364.139675 611.226767z" fill="#333232" p-id="5707"></path><path d="M532.340161 817.885436c-4.750285 2.151975-5.775794 5.239129-3.078653 9.259337 4.04465 6.029781 104.312867 36.029905 93.339389 12.83746-7.315652-15.462338-37.402918-22.827937-90.260736-22.096797zM664.796609 759.019091c-3.775786 4.569626 3.421906 8.628091 21.594138 12.173271 27.258349 5.318832 83.450931 15.85979 65.274447 0-12.119073-10.572839-41.074559-14.630241-86.868585-12.173271z" fill="#171616" p-id="5708"></path><path d="M545.007588 832.39878c25.126566 0 43.483709 3.818294 55.07143 11.454882l6.384724-19.997957L577.247892 802.340206 545.007588 809.487951v22.910829z" fill="#FE9595" p-id="5709"></path><path d="M681.672343 767.919235c24.599464-0.963872 42.492206 2.713082 53.679287 11.031926l6.666341-21.121235-42.565533-8.184944H677.262123l4.41022 18.274253z" fill="#FE9595" p-id="5710"></path><path d="M549.668607 776.390045c-9.580274 19.505926-17.225364 33.731277-22.935271 42.676054 52.52838 0.460151 83.62734 9.961784 93.295818 28.507026 3.684394 0.572797 10.488885-12.378372 20.413475-38.852446-17.398584-21.374159-47.656946-32.151037-90.774022-32.330634zM678.889122 718.995546c-3.962822 13.562224-9.33904 27.987364-16.129716 43.273293 26.367803-6.88632 74.861097-0.054198 92.584869 16.246614 6.620644-15.604741 11.536711-31.041574 14.748201-46.312626-23.944839-14.012811-54.346666-18.415592-91.203354-13.207281z" fill="#7E7C7C" p-id="5711"></path><path d="M524.373071 395.942132c5.334772 22.167999 17.618564 36.612267 36.851375 43.332805 19.231748 6.720538 35.011835 7.856568 47.337073 3.408091l-18.436846 16.052139c-64.415783 26.437942-104.321368 7.670595-119.714631-56.302041 25.351859-4.327329 43.339181-6.490994 53.963029-6.490994z" fill="#FD9B9B" p-id="5712"></path><path d="M258.000021 371.499948c-12.644048 11.651483-11.39856 23.19457 3.737529 34.630325 22.704664 17.154163 57.177708 37.033097 76.894049 18.516548 0.350692-34.640951-26.525084-52.356222-80.631578-53.146873z" fill="#F9A003" p-id="5713"></path><path d="M333.597572 425.923128l39.987413-63.93544c-18.624944 37.799307-31.247739 60.213853-37.86732 67.247888-9.929903 10.548397-62.919496-9.135001-40.180825-15.10527 15.159468-3.979825 19.978829-0.625932 14.460209 10.063803l23.600523 1.729019z" fill="#F9B703" p-id="5714"></path><path d="M380.526566 497.104083l221.047676-55.930094 160.500135-5.568568v8.605775l-188.340846 57.617667-193.208028 2.054206z" fill="#4D4B4B" p-id="5715"></path><path d="M576.410482 487.193308H457.438681l153.826356-33.379522z" fill="#585858" p-id="5716"></path><path d="M788.661097 255.783208C785.682339 244.921314 777.734378 240.944677 764.81509 243.85436 745.437751 248.219946 631.711455 280.653662 607.384043 287.522979c-24.327412 6.869317-23.018161 25.272156-25.430499 40.364673-1.607871 10.061678-7.924581 65.186243-18.948006 165.374757l10.903339-0.010627 5.359215-0.006376L788.661097 255.783208z" fill="#2B2B2B" p-id="5717"></path><path d="M606.034409 292.712161C619.622138 288.281749 762.398502 248.045663 771.10417 246.565317 779.80665 245.086033 789.221142 245.946823 789.221142 261.58132c0 10.42406-6.636584 70.03536-19.909753 178.834961l-197.256929 52.846128c9.171133-93.288379 14.513344-146.150447 16.023445-158.58408 2.265684-18.650449 4.369837-37.534694 17.956504-41.966168z" fill="#585858" p-id="5718"></path><path d="M379.017526 494.727877l193.036934-2.983009V505.40061H379.017526z" fill="#848282" p-id="5719"></path><path d="M538.875788 499.33151m0.758771 0l15.071263 0q0.75877 0 0.758771 0.75877l0 0q0 0.75877-0.758771 0.75877l-15.071263 0q-0.75877 0-0.758771-0.75877l0 0q0-0.75877 0.758771-0.75877Z" fill="#2B2B2B" p-id="5720"></path><path d="M511.730086 499.33151m0.75877 0l15.071264 0q0.75877 0 0.75877 0.75877l0 0q0 0.75877-0.75877 0.75877l-15.071264 0q-0.75877 0-0.75877-0.75877l0 0q0-0.75877 0.75877-0.75877Z" fill="#2B2B2B" p-id="5721"></path><path d="M572.05446 491.888333l197.560862-54.765371-1.130717 11.665298L572.05446 505.40061z" fill="#4D4B4B" p-id="5722"></path><path d="M667.064418 370.363918a17.343324 16.689761 0 1 0 34.686648 0 17.343324 16.689761 0 1 0-34.686648 0Z" fill="#404040" p-id="5723"></path><path d="M696.271766 346.720887l2.409149 1.153033a1.594056 1.594056 0 0 1 0.687569 2.242305l-6.663152 11.394309a1.594056 1.594056 0 0 1-2.06377 0.633371l-2.409149-1.154096a1.594056 1.594056 0 0 1-0.68757-2.242305l6.663152-11.393246a1.594056 1.594056 0 0 1 2.063771-0.633371z" fill="#404040" p-id="5724"></path><path d="M498.483485 431.867893a1.424023 1.424023 0 0 1 2.01276-0.098832c8.12437 7.365599 11.746064 18.309321 10.913967 32.707894l-0.070138 1.099898-0.148779 0.274178c-4.851242 8.91077-10.1722 10.613222-14.614301 4.011706-1.601494-2.380456-2.29544-5.026588-2.656759-8.969219l-0.153029-2.001071-0.10202-1.445277c-0.599365-7.690786-2.786409-11.951165-7.981967-13.599419-0.769397-0.244422-1.347508-0.790652-1.261429-1.572801 0.086079-0.784275 0.795965-1.427211 1.572801-1.262492 5.961768 1.261429 7.182814 5.184931 8.767305 8.166877 1.12009 2.110529 1.467594 4.066967 1.775778 8.454871l0.174284 2.455908c0.309247 3.815106 0.891608 6.192374 2.228489 8.17963 2.866112 4.258254 5.570693 3.577061 9.326288-3.025517l0.270989-0.484593 0.028693-0.461214c0.768335-13.33268-2.43678-23.304029-9.568584-30.030942l-0.414454-0.384699a1.427211 1.427211 0 0 1-0.099894-2.014886z" fill="#FD9B9B" p-id="5725"></path><path d="M682.230262 791.57183c10.65573 10.687611 25.168011 15.62812 43.537907 14.821528 3.987264-0.970248 5.802362 0.049947 5.445293 3.060587-0.357068 3.008514-1.764088 10.500575-4.222121 22.476182l29.552726 47.23399c24.052172 14.189219 31.607995 29.878976 22.665344 47.067146l-37.65903-9.744993L647.881554 857.545536c4.212557-17.547363 10.990481-29.755703 20.333772-36.625019 4.463355-1.970253 7.548384-9.760933 9.254024-23.370979 0.399577-5.108417 1.986193-7.100986 4.760912-5.977708z" fill="#272727" p-id="5726"></path><path d="M650.589323 849.716599l128.927209 74.13527c1.604683 3.056336 1.604683 6.435733 0 10.139256L776.11163 938.983707c-85.96635-48.405089-130.7083-73.570975-134.223724-75.499782-3.516486-1.928807-0.616368-6.517562 8.701417-13.767326z" fill="#FFFFFF" p-id="5727"></path><path d="M779.35075 924.468237L650.147239 849.716599l-0.374072 0.293306c-4.707777 3.684394-7.803433 6.703535-9.305033 9.093555-1.585554 2.523921-1.455904 4.569626 0.501596 5.782171l24.165881 13.645115L775.642977 941.109114l3.761971-5.550501c1.679072-3.869304 1.742834-7.362411 0.230607-10.529268l-0.284805-0.561108z m-129.084489-73.042811l128.018598 74.067258 0.089267 0.179596c1.314564 2.771531 1.25399 5.822553-0.201914 9.203014l-2.964943 4.35496-126.886818-71.834517c-3.635509-2.051018-5.787484-3.2625-6.453799-3.630196-1.34432-0.741767-1.454841-1.910741-0.202977-3.902248 1.231674-1.961751 3.719463-4.473982 7.452741-7.514377l1.149845-0.92349z" fill="#333333" p-id="5728"></path><path d="M543.290259 843.759082c11.243405 9.320974 20.145673 21.431545 47.935375 14.250856 1.786405-0.814031 2.879927-0.150904 3.280566 1.990444 0.600428 3.21149-3.280566 25.013919-3.280566 26.314668 0 0.868229 9.230644 22.756736 27.692995 65.667648 21.014965 23.231765 26.641981 41.92366 16.878922 56.076747l-97.787866-61.275493L495.91493 901.207779c7.975591-14.816215 19.247689-25.720617 33.815231-32.711081l10.184952-21.742917c1.193416-3.072276 2.317757-4.070155 3.375146-2.994699z" fill="#272727" p-id="5729"></path><path d="M495.66732 901.789078l139.826298 105.349003c1.31669 3.08928 0.77046 6.128612-1.637627 9.115872-2.408087 2.986197-3.984076 4.860807-4.725843 5.62064L486.597144 914.875211c-2.207236-3.053148-1.622749-5.849121 1.753461-8.385794 3.37621-2.537736 5.815114-4.104162 7.316715-4.700339z" fill="#FFFFFF" p-id="5730"></path><path d="M636.43411 1007.683248L497.447349 900.726375l-0.370884 0.149841c-1.562174 0.634434-4.018083 2.245493-7.411295 4.850179-3.637635 2.79066-4.30395 6.052097-1.884174 9.471878l0.146653 0.154092L629.626431 1024l0.433583-0.454837c0.756645-0.790652 2.324133-2.696079 4.725843-5.7386 2.540924-3.219992 3.130725-6.569634 1.72158-9.946906l-0.074389-0.176409z m-139.195051-105.322435l138.036704 106.226796-0.06695-0.172158c1.19873 2.873551 0.705635 5.672712-1.52498 8.498441l-1.560049 1.962814a109.456352 109.456352 0 0 1-2.475037 3.005326l-0.179596 0.206164-140.602072-107.808099 0.059512 0.085016c-1.953249-2.759841-1.463343-5.156238 1.589804-7.499499l0.921364-0.699259c2.388958-1.795969 4.234874-3.020204 5.519683-3.666328l0.281617-0.139214z" fill="#333333" p-id="5731"></path><path d="M750.761896 908.1653l1.264618 0.6525L744.789502 920.917744l-1.264618-0.6525z" fill="#272727" p-id="5732"></path><path d="M643.272609 855.030117L748.838403 914.37574l-0.704573 1.228486L642.568036 856.258602zM607.396795 984.679964l1.164724 0.740705L600.161909 997.432408l-1.164723-0.740704z" fill="#272727" p-id="5733"></path><path d="M489.361236 907.102597L602.185297 994.187974l-0.885233 1.119027L488.476004 908.221624z" fill="#272727" p-id="5734"></path><path d="M598.335121 886.206654a1.366637 1.366637 0 0 1 1.973441 0.136026 1.481409 1.481409 0 0 1-0.131775 2.040391l-1.107338 1.011694c-17.832168 16.394329-22.380539 26.709994-15.029818 31.38589 7.353909 4.678022 12.029806-3.166857 13.822587-25.652603 0.131775-1.65888 2.424027-1.81191 2.760904-0.183848l0.301808 1.431462c3.723714 17.40071 7.712041 25.335918 11.020237 24.257274 3.437846-1.121152 5.798111-4.452728 5.480363-8.692916-0.427207-5.696092-5.29439-12.576035-15.299745-19.984143a1.479284 1.479284 0 0 1-0.323062-2.019137 1.368762 1.368762 0 0 1 1.951124-0.333689c10.612159 7.857631 15.958621 15.413454 16.460217 22.114864 0.421893 5.628079-2.789597 10.161572-7.428298 11.674862-5.058469 1.649316-9.121186-4.675896-12.781137-18.691895l-0.257175-0.997878-0.059511 0.428269-0.177472 1.176413c-2.646132 16.828975-8.149874 23.290214-16.632375 18.126537l-0.303933-0.189162c-10.028735-6.37941-4.285884-18.881056 15.759896-37.038411zM726.740543 830.86211c0.382573-0.280554 0.892671-0.361319 1.362386-0.170033 12.754569 5.196621 19.511239 11.710994 20.59626 18.432596 0.893734 5.538812-2.648258 10.539895-6.933079 10.539895-2.650383 0-5.201934-2.293315-7.780054-6.891634l-0.123273-0.223168 0.029755 0.222106c0.60149 4.753474 0.427207 8.142436-0.478216 10.371987l-0.096706 0.226356c-1.823599 4.100973-5.472924 4.137105-11.075498 1.72158-6.40704-2.760904-5.384719-13.916105 2.131784-33.578248a1.416584 1.416584 0 0 1 2.136034-0.669503l0.128587 0.099894 0.10202-0.081828z m0.153029 2.454846l-0.121148-0.076515-0.529227 1.421897c-6.187061 16.752461-6.875693 26.037303-2.890554 27.754632 4.33158 1.86717 6.437859 1.845916 7.368788-0.245484 1.499475-3.373021 0.605741-11.58347-3.310322-25.604783l-0.212541-0.756645 2.725835-0.850163 0.44421 1.381515c4.436788 13.587729 8.483563 20.418788 11.397497 20.418788 2.411275 0 4.744972-3.294381 4.120102-7.163685-0.877793-5.43998-6.703535-11.138197-18.196675-15.940555l-0.645061-0.265676a1.428274 1.428274 0 0 1-0.150904-0.073326z" fill="#FFFFFF" p-id="5735"></path></svg>